<svg width="1010" height="341" viewBox="0 0 1010 341" fill="none" xmlns="http://www.w3.org/2000/svg">
<g filter="url(#filter0_d_21_118)">
<path d="M131.063 230.671C115.95 260.885 311.955 314.975 508.868 321.313C673.256 319.394 866.523 248.296 866.523 248.296C887.276 240.053 888.475 228.349 884.154 218.082C879.833 207.815 875.758 197.939 875.758 197.939L989.939 147.583C1012.3 137.511 1009.43 124.579 984.902 124.923C960.376 125.267 934.528 114.851 934.528 114.851C917.273 107.963 915.044 100.226 914.378 84.6375C913.712 69.0495 914.819 44.7088 916.897 29.2455C921.051 -10.0533 909.149 6.19818 889.191 31.7633C871.56 51.9059 845.816 63.7036 813.63 72.0484L750.663 92.191C728.6 99.0338 723.213 105.309 730.513 122.405L731.9 124.923L744.212 147.276C673.626 173.204 618.016 177.237 521.461 177.797C420.086 179.628 357.847 173.342 277.147 148.116L287.006 129.958L289.741 124.923C296.127 106.943 288.974 100.524 267.072 92.191C194.197 75.4311 110.913 24.2099 110.913 24.2099C110.913 24.2099 90.6678 -1.76718 93.2821 24.2099L98.3194 89.6732C100.244 106.173 99.9356 114.53 80.6885 117.369C61.4414 120.208 20.2398 132.476 20.2398 132.476C11.6009 134.554 -11.4641 142.623 25.2772 155.136L143.427 208.997L131.063 230.671Z" fill="#FFCB39"/>
<path d="M143.427 208.997L131.063 230.671C115.95 260.885 311.955 314.975 508.868 321.313C673.256 319.394 866.523 248.296 866.523 248.296C887.276 240.053 888.475 228.349 884.154 218.082C879.833 207.815 875.758 197.939 875.758 197.939M143.427 208.997L186.474 124.923C196.847 107.65 204.105 122.405 224.254 129.958C243.012 136.883 260.474 142.904 277.147 148.116M143.427 208.997L25.2772 155.136C-11.4641 142.623 11.6009 134.554 20.2398 132.476C20.2398 132.476 61.4414 120.208 80.6885 117.369C99.9356 114.53 100.244 106.173 98.3194 89.6732L93.2821 24.2099C90.6678 -1.76717 110.913 24.2099 110.913 24.2099C110.913 24.2099 194.197 75.4311 267.072 92.191C288.974 100.524 296.127 106.943 289.741 124.923L287.006 129.958L277.147 148.116M277.147 148.116C357.847 173.342 420.086 179.628 521.461 177.797C618.016 177.237 673.626 173.204 744.212 147.276M875.758 197.939L871.56 187.868C859.993 163.883 852.318 150.812 838.817 127.44C831.085 115.462 825.617 113.078 813.63 117.369C813.63 117.369 765.481 139.463 744.212 147.276M875.758 197.939L989.939 147.583C1012.3 137.511 1009.43 124.579 984.902 124.923C960.376 125.267 934.528 114.851 934.528 114.851C917.273 107.963 915.044 100.226 914.378 84.6375C913.712 69.0495 914.819 44.7088 916.897 29.2455C921.051 -10.0533 909.149 6.19818 889.191 31.7633C871.56 51.9059 845.816 63.7036 813.63 72.0484C813.63 72.0484 775.253 84.3248 750.663 92.191C728.6 99.0338 723.213 105.309 730.513 122.405L731.9 124.923L744.212 147.276" stroke="#070E14" stroke-width="9.45626"/>
<path d="M204.272 165.029C204.742 163.581 205.696 162.464 207.134 161.678C208.592 160.829 210.14 160.669 211.777 161.2L246.25 172.382C247.825 172.892 248.963 173.888 249.666 175.368C250.452 176.806 250.59 178.313 250.079 179.887C249.569 181.461 248.563 182.631 247.062 183.396C245.644 184.12 244.148 184.226 242.574 183.715L230.957 179.947L214.997 229.154C214.487 230.728 213.491 231.867 212.01 232.57C210.593 233.293 209.097 233.399 207.523 232.889C205.949 232.378 204.8 231.414 204.077 229.996C203.354 228.579 203.247 227.083 203.758 225.509L219.718 176.302L208.101 172.534C206.464 172.003 205.294 170.997 204.591 169.517C203.909 167.973 203.803 166.477 204.272 165.029Z" fill="#070E14"/>
<path d="M275.634 229.788L260.742 225.527L249.729 241.998C249.019 243.034 248.046 243.788 246.809 244.26C245.654 244.687 244.44 244.719 243.168 244.354C241.768 243.954 240.609 243.071 239.691 241.707C238.837 240.361 238.646 238.861 239.12 237.206C239.284 236.633 239.57 235.992 239.98 235.283L272.842 186.13C273.706 184.793 274.912 183.83 276.458 183.24C278.085 182.604 279.631 182.495 281.095 182.914C282.559 183.333 283.781 184.234 284.763 185.616C285.826 186.953 286.371 188.417 286.397 190.009L288.228 249.297C288.218 250.051 288.141 250.683 287.995 251.192C287.54 252.783 286.584 253.956 285.129 254.71C283.692 255.4 282.242 255.536 280.778 255.117C279.315 254.698 278.215 253.97 277.479 252.934C276.825 251.851 276.484 250.756 276.457 249.646L275.634 229.788ZM266.883 217.06L275.188 219.436L275.468 202.579L266.883 217.06Z" fill="#070E14"/>
<path d="M341.485 198.845C344.969 199.645 348.026 200.822 350.658 202.377C353.289 203.932 355.397 205.842 356.982 208.108C358.632 210.389 359.687 213.042 360.147 216.068C360.621 219.029 360.436 222.349 359.592 226.026C357.933 233.252 354.688 238.212 349.859 240.906C345.044 243.536 338.927 243.999 331.508 242.295L321.831 240.073L317.587 258.557C317.202 260.234 316.302 261.488 314.889 262.318C313.476 263.148 311.995 263.386 310.447 263.03C308.899 262.675 307.67 261.815 306.76 260.452C305.851 259.088 305.589 257.568 305.974 255.891L318.862 199.762C319.232 198.15 320.092 196.921 321.44 196.076C322.868 195.181 324.389 194.919 326.002 195.289L341.485 198.845ZM348.366 223.448C348.825 221.448 348.92 219.704 348.651 218.216C348.381 216.728 347.787 215.471 346.868 214.445C346.028 213.369 344.904 212.5 343.494 211.836C342.149 211.188 340.637 210.671 338.96 210.286L329.186 208.042L324.431 228.751L334.205 230.995C335.882 231.38 337.46 231.607 338.939 231.675C340.432 231.678 341.784 231.411 342.994 230.874C344.268 230.352 345.344 229.512 346.221 228.355C347.177 227.148 347.892 225.513 348.366 223.448Z" fill="#070E14"/>
<path d="M400.156 217.921C400.334 216.276 401.044 214.955 402.284 213.958C403.531 212.895 404.977 212.453 406.623 212.631C408.136 212.796 409.359 213.494 410.29 214.727C411.295 215.902 411.846 217.26 411.945 218.802L414.117 263.182L428.821 245.503C430.198 243.855 431.743 243.124 433.453 243.31C435.296 243.51 436.713 244.563 437.705 246.468L448.37 266.902L460.215 224.043C460.642 222.559 461.407 221.343 462.508 220.397C463.682 219.393 465.059 218.977 466.639 219.148C468.284 219.327 469.601 220.069 470.592 221.375C471.655 222.622 472.097 224.069 471.918 225.714C471.904 225.845 471.853 226.006 471.766 226.197C471.752 226.328 471.734 226.493 471.712 226.69C471.618 226.946 471.56 227.173 471.539 227.37L456.502 283.066C456.06 284.682 455.204 285.821 453.934 286.482C452.729 287.15 451.403 287.406 449.956 287.249L448.08 287.045C445.843 286.802 444.184 285.523 443.103 283.209L431.837 259.114L415.859 280.25C415.014 281.291 414.102 282.024 413.124 282.45C412.145 282.877 411.129 283.033 410.077 282.918L408.3 282.725C406.786 282.561 405.517 281.99 404.491 281.013C403.465 280.036 402.903 278.777 402.804 277.235L400.171 219.621C400.119 219.482 400.108 219.281 400.136 219.018C400.085 218.879 400.07 218.711 400.091 218.514C400.12 218.25 400.141 218.053 400.156 217.921Z" fill="#070E14"/>
<path d="M493.342 220.218C494.93 220.264 496.303 220.867 497.461 222.027C498.619 223.187 499.173 224.627 499.123 226.347L497.438 283.911C497.388 285.631 496.751 287.036 495.527 288.126C494.303 289.216 492.897 289.738 491.309 289.692C489.721 289.645 488.348 289.042 487.19 287.882C486.032 286.723 485.478 285.283 485.529 283.562L487.213 225.998C487.263 224.278 487.9 222.873 489.124 221.783C490.348 220.693 491.754 220.171 493.342 220.218Z" fill="#070E14"/>
<path d="M560.101 219.317C561.688 219.243 563.102 219.74 564.345 220.808C565.588 221.877 566.249 223.271 566.329 224.99L569.015 282.516C569.095 284.235 568.566 285.685 567.429 286.864C566.357 288.041 564.995 288.668 563.342 288.745L561.854 288.814C560.664 288.87 559.624 288.587 558.733 287.966C557.906 287.276 557.244 286.578 556.747 285.872L531.153 246.512L532.912 284.201C532.993 285.92 532.464 287.37 531.326 288.549C530.188 289.729 528.793 290.358 527.14 290.435C525.619 290.506 524.238 290.007 522.995 288.938C521.749 287.804 521.088 286.41 521.01 284.757L518.325 227.231C518.242 225.446 518.77 223.996 519.911 222.883C521.115 221.7 522.477 221.073 523.998 221.002L525.288 220.942C526.147 220.902 527.016 221.06 527.894 221.417C528.772 221.773 529.667 222.494 530.579 223.577L556.286 263.23L554.527 225.541C554.446 223.822 554.942 222.374 556.014 221.197C557.151 220.018 558.514 219.391 560.101 219.317Z" fill="#070E14"/>
<path d="M629.953 211.518C631.526 211.294 632.981 211.655 634.319 212.601C635.658 213.548 636.448 214.873 636.69 216.576L644.804 273.591C645.046 275.295 644.657 276.788 643.636 278.069C642.681 279.342 641.384 280.095 639.745 280.328L638.271 280.538C637.091 280.706 636.029 280.523 635.084 279.989C634.195 279.38 633.469 278.747 632.908 278.092L603.707 241.329L609.023 278.683C609.265 280.387 608.876 281.879 607.855 283.161C606.834 284.443 605.504 285.201 603.866 285.434C602.358 285.649 600.936 285.283 599.597 284.336C598.25 283.325 597.46 282 597.227 280.361L589.113 223.347C588.861 221.578 589.25 220.085 590.281 218.868C591.367 217.577 592.664 216.824 594.172 216.61L595.45 216.428C596.301 216.307 597.181 216.382 598.089 216.654C598.997 216.926 599.956 217.558 600.967 218.551L630.308 255.595L624.993 218.241C624.75 216.537 625.107 215.049 626.062 213.776C627.083 212.494 628.38 211.742 629.953 211.518Z" fill="#070E14"/>
<path d="M707.145 202.462C707.467 203.95 707.212 205.428 706.378 206.895C705.53 208.298 704.297 209.174 702.68 209.524L673.082 215.93L677.492 236.309L700.783 231.269C702.4 230.919 703.885 231.207 705.237 232.133C706.653 233.046 707.53 234.278 707.866 235.831C708.188 237.319 707.893 238.771 706.98 240.188C706.132 241.59 704.9 242.467 703.282 242.817L679.992 247.858L682.743 260.57L712.342 254.164C713.959 253.814 715.451 254.135 716.817 255.126C718.168 256.053 719.005 257.26 719.327 258.748C719.649 260.236 719.394 261.713 718.56 263.181C717.712 264.583 716.479 265.46 714.862 265.81L679.441 273.476C677.824 273.826 676.314 273.577 674.911 272.729C673.559 271.803 672.708 270.531 672.358 268.914L660.176 212.628C659.826 211.011 660.082 209.533 660.944 208.195C661.856 206.779 663.121 205.895 664.739 205.545L700.16 197.879C701.777 197.529 703.269 197.849 704.634 198.841C705.986 199.767 706.823 200.974 707.145 202.462Z" fill="#070E14"/>
<path d="M744.741 186.732C751.837 184.825 757.937 185.207 763.042 187.879C768.13 190.487 771.585 195.179 773.406 201.955C773.715 203.105 773.972 204.442 774.175 205.963C774.379 207.485 774.399 209.091 774.236 210.779C774.12 212.387 773.739 214.032 773.095 215.713C772.514 217.377 771.521 218.912 770.117 220.317C772.241 220.569 773.969 221.133 775.301 222.008C776.633 222.884 777.703 223.933 778.512 225.155C779.367 226.296 780.007 227.529 780.431 228.855C780.856 230.18 781.215 231.386 781.507 232.472L784.059 241.965C784.505 243.627 784.3 245.156 783.441 246.552C782.583 247.948 781.386 248.853 779.852 249.265C778.318 249.677 776.829 249.495 775.387 248.717C773.944 247.94 772.999 246.72 772.552 245.058L770 235.566C769.468 233.584 768.663 232.121 767.587 231.176C766.51 230.232 765.351 229.618 764.11 229.335C762.915 228.971 761.685 228.856 760.419 228.991C759.153 229.125 758.104 229.304 757.273 229.528L746.726 232.363L751.649 250.677C752.096 252.339 751.89 253.868 751.031 255.265C750.173 256.661 748.976 257.565 747.442 257.977C745.908 258.39 744.42 258.207 742.977 257.43C741.534 256.652 740.589 255.433 740.142 253.77L725.193 198.156C724.763 196.558 724.946 195.07 725.74 193.691C726.581 192.231 727.801 191.286 729.399 190.856L744.741 186.732ZM762.162 204.875C761.646 202.957 760.865 201.453 759.818 200.364C758.818 199.193 757.663 198.338 756.353 197.8C755.043 197.261 753.641 197.02 752.149 197.079C750.704 197.056 749.246 197.242 747.775 197.638L738.091 200.241L743.736 221.24L753.42 218.637C754.955 218.224 756.35 217.678 757.606 216.997C758.91 216.236 760.001 215.325 760.882 214.266C761.745 213.143 762.316 211.824 762.595 210.31C762.856 208.732 762.711 206.92 762.162 204.875Z" fill="#070E14"/>
<path d="M821.084 230.65C821.601 232.361 821.439 234 820.599 235.568C819.803 237.053 818.518 238.064 816.744 238.6C815.033 239.117 813.403 238.987 811.855 238.211C810.35 237.351 809.34 236.066 808.823 234.355C808.287 232.581 808.416 230.952 809.212 229.466C810.052 227.899 811.328 226.856 813.039 226.339C814.813 225.803 816.452 225.965 817.957 226.824C819.505 227.601 820.547 228.876 821.084 230.65ZM792.887 179.218C792.427 177.697 792.573 176.235 793.325 174.833C794.077 173.43 795.213 172.499 796.734 172.039C798.255 171.58 799.716 171.726 801.119 172.477C802.522 173.229 803.453 174.365 803.912 175.886L816.09 216.186C816.55 217.706 816.404 219.168 815.652 220.571C814.9 221.973 813.764 222.905 812.243 223.364C810.723 223.824 809.261 223.678 807.858 222.926C806.456 222.174 805.524 221.038 805.065 219.517L792.887 179.218Z" fill="#070E14"/>
</g>
<defs>
<filter id="filter0_d_21_118" x="0.399811" y="0.957336" width="1009.46" height="339.269" filterUnits="userSpaceOnUse" color-interpolation-filters="sRGB">
<feFlood flood-opacity="0" result="BackgroundImageFix"/>
<feColorMatrix in="SourceAlpha" type="matrix" values="0 0 0 0 0 0 0 0 0 0 0 0 0 0 0 0 0 0 127 0" result="hardAlpha"/>
<feOffset dy="14.1844"/>
<feComposite in2="hardAlpha" operator="out"/>
<feColorMatrix type="matrix" values="0 0 0 0 0.827451 0 0 0 0 0.678431 0 0 0 0 0.196078 0 0 0 1 0"/>
<feBlend mode="normal" in2="BackgroundImageFix" result="effect1_dropShadow_21_118"/>
<feBlend mode="normal" in="SourceGraphic" in2="effect1_dropShadow_21_118" result="shape"/>
</filter>
</defs>
</svg>
