<svg width="36" height="43" viewBox="0 0 36 43" fill="none" xmlns="http://www.w3.org/2000/svg">
<path fill-rule="evenodd" clip-rule="evenodd" d="M31.6567 8.16177C31.6567 11.0125 29.3457 13.3235 26.4949 13.3235C23.6441 13.3235 21.3331 11.0125 21.3331 8.16177C21.3331 5.311 23.6441 3 26.4949 3C29.3457 3 31.6567 5.311 31.6567 8.16177ZM27.9438 16.1953C31.7602 15.5116 34.6567 12.1749 34.6567 8.16177C34.6567 3.65415 31.0025 0 26.4949 0C21.9873 0 18.3331 3.65415 18.3331 8.16177C18.3331 12.1063 21.1314 15.3973 24.8511 16.1579C24.9694 16.6473 25.0795 17.1168 25.181 17.5698C23.9392 17.5714 22.8499 17.8285 21.9159 18.3521C20.8217 18.9654 20.07 19.8721 19.542 20.8689C18.6115 22.6256 18.2736 24.9012 17.987 26.8312L17.987 26.8316C17.9646 26.9821 17.9426 27.1306 17.9206 27.2765C17.7972 28.0957 18.3612 28.8598 19.1804 28.9833C19.9996 29.1067 20.7637 28.5426 20.8871 27.7235L20.9255 27.4683C21.2449 25.3432 21.5135 23.556 22.193 22.2732C22.5198 21.6562 22.9061 21.2362 23.3829 20.9689C23.8608 20.701 24.5589 20.5141 25.6314 20.5847C25.6744 20.5875 25.717 20.5885 25.7593 20.5877C25.9177 21.646 26.0085 22.6401 26.0257 23.6332C26.0606 25.6374 25.7962 27.6975 25.1156 30.3141C25.0424 30.4564 24.991 30.613 24.9662 30.7801C24.9559 30.8499 24.9454 30.9188 24.9348 30.9867C24.9014 31.1076 24.867 31.2298 24.8318 31.3531C24.781 31.5312 24.7646 31.7108 24.7787 31.8851C24.3212 34.2386 23.7107 35.1803 22.9954 35.8661C22.5307 36.3116 21.9771 36.6919 21.1745 37.2433L21.1354 37.2701C20.3351 37.8199 19.3707 38.4891 18.2669 39.4452C17.6407 39.9876 17.5728 40.9349 18.1152 41.5611C18.6576 42.1872 19.6049 42.2552 20.2311 41.7128C21.2014 40.8723 22.0503 40.2814 22.8342 39.7428L22.9662 39.6522L22.9663 39.6522C23.6857 39.1585 24.4255 38.651 25.0715 38.0317C25.8297 37.3049 26.4207 36.4658 26.8869 35.36C27.5702 35.9664 28.1521 36.4134 28.6369 36.7666C28.8548 36.9254 29.0138 37.0377 29.1511 37.1348L29.1513 37.1349C29.2913 37.2338 29.4088 37.3169 29.5433 37.4169C29.6854 37.5227 29.7649 37.5899 29.8087 37.6306C29.8075 37.6863 29.8007 37.7823 29.7765 37.9344C29.6901 38.4758 29.4682 39.2715 29.0787 40.6677L28.9589 41.0975C28.7366 41.8956 29.2034 42.7227 30.0014 42.945C30.7995 43.1673 31.6266 42.7005 31.8489 41.9025C31.8966 41.731 31.9431 41.5646 31.9883 41.4032C32.3502 40.1082 32.6238 39.1295 32.739 38.4069C32.8822 37.5094 32.8507 36.6087 32.1852 35.7883C31.9215 35.4632 31.6026 35.2099 31.3342 35.0101C31.2067 34.9153 31.0248 34.7859 30.8386 34.6536L30.838 34.6532C30.6868 34.5457 30.533 34.4363 30.4033 34.3418C29.7527 33.8679 28.894 33.1962 27.7926 32.0872C27.8197 31.9353 27.8461 31.7801 27.8717 31.6213C28.6979 28.5974 29.0594 26.1329 29.0267 23.6748C29.3121 23.888 29.5936 24.0696 29.8716 24.2201C30.5564 24.5908 31.2741 24.8023 32.0032 24.7801C32.7479 24.7575 33.3976 24.4937 33.9259 24.0875C34.9225 23.3213 35.437 22.0996 35.6939 21.0558C35.9612 19.9697 36.0217 18.7875 35.8908 17.8025C35.7817 16.9812 35.0275 16.404 34.2063 16.5131C33.3851 16.6222 32.8078 17.3764 32.9169 18.1976C32.9967 18.7979 32.9619 19.603 32.7808 20.3388C32.5893 21.1169 32.3023 21.5516 32.0974 21.7091C32.025 21.7648 31.9739 21.7796 31.912 21.7815C31.8344 21.7839 31.6396 21.7658 31.3 21.582C30.6579 21.2343 29.7206 20.415 28.4915 18.7598C28.337 17.938 28.1528 17.0888 27.9438 16.1953Z" fill="#070E14"/>
<path d="M7.5 23H1" stroke="#070E14" stroke-width="1.5" stroke-linecap="round"/>
<path d="M13 27H3" stroke="#070E14" stroke-width="1.5" stroke-linecap="round"/>
<path d="M12 31H4" stroke="#070E14" stroke-width="1.5" stroke-linecap="round"/>
</svg>
