<svg width="40" height="21" viewBox="0 0 40 21" fill="none" xmlns="http://www.w3.org/2000/svg">
<path d="M31.6029 12.8235C27.9237 12.8235 24.9411 9.84098 24.9411 6.16178C24.9411 4.38632 25.6226 3.32728 26.6592 2.6416C27.7895 1.89393 29.4925 1.5 31.6029 1.5C33.7133 1.5 35.4163 1.89393 36.5466 2.6416C37.5832 3.32728 38.2647 4.38632 38.2647 6.16178C38.2647 9.84098 35.2821 12.8235 31.6029 12.8235Z" fill="#FFCB39" stroke="#070E14" stroke-width="3"/>
<path d="M24.1029 5.94116C17.3148 2.68844 7.85924 4.85535 7.99999 5.94116" stroke="#070E14" stroke-width="3" stroke-linecap="round"/>
<path d="M19.5 6.00003C19.5 6.00003 18.6936 10.1229 18.5 15C18.3064 19.8772 21.8901 18.4302 25.5 19" stroke="#070E14" stroke-width="3" stroke-linecap="round"/>
<path d="M24.0075 6.00003C24.0075 6.00003 23.1936 7.12288 23 12C22.8064 16.8772 26.3901 15.4302 30 16" stroke="#070E14" stroke-width="3" stroke-linecap="round"/>
<path d="M8 6.00003C8 6.00003 7.53583 9.59916 8 14C8.46417 18.4009 5.55785 16.7852 2 16" stroke="#070E14" stroke-width="3" stroke-linecap="round"/>
<path d="M13 5.50003C13 5.50003 12.3584 7.09916 12.8226 11.5C13.2868 15.9009 8.05785 13.7852 4.5 13" stroke="#070E14" stroke-width="3" stroke-linecap="round"/>
</svg>
