<svg width="42" height="51" viewBox="0 0 42 51" fill="none" xmlns="http://www.w3.org/2000/svg">
<path fill-rule="evenodd" clip-rule="evenodd" d="M37.4745 9.5726C37.4745 13.2025 34.5319 16.1452 30.9019 16.1452C27.272 16.1452 24.3293 13.2025 24.3293 9.5726C24.3293 5.94265 27.272 3 30.9019 3C34.5319 3 37.4745 5.94265 37.4745 9.5726ZM32.3449 19.0371C36.9471 18.3413 40.4745 14.3689 40.4745 9.5726C40.4745 4.2858 36.1887 0 30.9019 0C25.6151 0 21.3293 4.2858 21.3293 9.5726C21.3293 14.2973 24.7522 18.2225 29.2534 19.0038C29.4099 19.6533 29.5539 20.2738 29.685 20.8707C28.1272 20.8253 26.7871 21.1176 25.6582 21.7505C24.4282 22.44 23.5781 23.4613 22.9762 24.5977C21.9069 26.6164 21.5167 29.2417 21.1786 31.5163C21.1528 31.6897 21.1273 31.8612 21.1019 32.0301C20.9785 32.8493 21.5425 33.6134 22.3617 33.7369C23.1809 33.8603 23.945 33.2962 24.0684 32.4771L24.1176 32.1497C24.4881 29.6831 24.809 27.5467 25.6273 26.0019C26.028 25.2455 26.5126 24.7108 27.1252 24.3674C27.7389 24.0233 28.6102 23.7989 29.9062 23.8842C30.0266 23.8921 30.1446 23.8856 30.2585 23.8661C30.4686 25.2074 30.5891 26.4605 30.6109 27.714C30.6524 30.1009 30.3358 32.549 29.5275 35.6486C29.4476 35.7973 29.3917 35.9621 29.3655 36.1387C29.3525 36.2263 29.3394 36.3127 29.3261 36.3977C29.2854 36.545 29.2436 36.6937 29.2007 36.8439C29.1466 37.0334 29.1315 37.2248 29.1507 37.4095C28.6071 40.2286 27.8712 41.3957 26.977 42.253C26.4165 42.7904 25.7517 43.247 24.8221 43.8856L24.822 43.8856L24.7629 43.9263C23.8256 44.5702 22.7045 45.3482 21.4214 46.4596C20.7952 47.002 20.7273 47.9493 21.2697 48.5755C21.8121 49.2017 22.7594 49.2696 23.3856 48.7272C24.5352 47.7314 25.5408 47.0316 26.4616 46.399L26.612 46.2957C27.4601 45.7138 28.3113 45.1297 29.0531 44.4186C29.9875 43.5228 30.7037 42.4741 31.2597 41.0319C32.1737 41.8644 32.9402 42.456 33.5668 42.9125C33.8146 43.093 34.0015 43.2252 34.1645 43.3404C34.3325 43.4591 34.4749 43.5599 34.632 43.6768C34.902 43.8777 35.0023 43.9761 35.0436 44.0266C35.05 44.0759 35.0571 44.2171 35.0068 44.5325C34.903 45.183 34.6384 46.1315 34.185 47.7568L34.0416 48.2711C33.8193 49.0692 34.2861 49.8963 35.0841 50.1186C35.8822 50.3409 36.7093 49.8741 36.9316 49.0761C36.9874 48.8757 37.0417 48.6816 37.0943 48.4934C37.5205 46.9683 37.8367 45.8367 37.9694 45.0051C38.1319 43.9859 38.0884 43.0181 37.3745 42.138C37.0866 41.7831 36.7344 41.5017 36.4229 41.27C36.2728 41.1583 36.0662 41.0114 35.8521 40.8593L35.8514 40.8588C35.6746 40.7331 35.4926 40.6038 35.3333 40.4877C34.5428 39.9118 33.4938 39.0901 32.1447 37.7203C32.1856 37.4976 32.225 37.2683 32.263 37.0323C33.2422 33.4515 33.6607 30.5542 33.6105 27.6618C33.6079 27.515 33.6041 27.3684 33.5992 27.2218C34.0729 27.6165 34.5346 27.9345 34.9858 28.1788C35.7591 28.5974 36.5556 28.8288 37.3545 28.8044C38.1689 28.7797 38.8791 28.4918 39.4594 28.0457C40.5599 27.1997 41.1436 25.8348 41.4392 24.6335C41.7453 23.39 41.814 22.036 41.665 20.9139C41.5558 20.0927 40.8017 19.5154 39.9804 19.6246C39.1592 19.7337 38.582 20.4879 38.6911 21.3091C38.7891 22.0464 38.746 23.0233 38.5261 23.9165C38.2959 24.852 37.9396 25.43 37.6309 25.6673C37.5066 25.7629 37.3949 25.8018 37.2632 25.8058C37.116 25.8103 36.8423 25.7724 36.4142 25.5406C35.6072 25.1037 34.4689 24.0962 32.9997 22.1091C32.8163 21.127 32.5961 20.1102 32.3449 19.0371Z" fill="#070E14"/>
<path d="M8.62358 26.9758H1" stroke="#070E14" stroke-width="2" stroke-linecap="round"/>
<path d="M15.0743 31.6672H3.34572" stroke="#070E14" stroke-width="2" stroke-linecap="round"/>
<path d="M13.9014 36.3586H4.51857" stroke="#070E14" stroke-width="2" stroke-linecap="round"/>
</svg>
