<svg width="211" height="248" viewBox="0 0 211 248" fill="none" xmlns="http://www.w3.org/2000/svg">
<path fill-rule="evenodd" clip-rule="evenodd" d="M47.656 1.50478C31.05 5.52578 14.611 18.7458 7.075 34.1408C1.78 44.9568 0 52.3188 0 63.4038C0 87.7968 13.179 109.367 34.768 120.307C40.616 123.27 43.219 123.569 44.954 121.479C47.488 118.426 45.738 115.591 39.065 111.942C20.586 101.839 9.947 84.5848 9.764 64.4238C9.591 45.2988 18.163 29.1318 34.068 18.5838C49.909 8.07878 71.161 7.15977 88.5 16.2308C96.815 20.5818 106.883 30.8238 110.808 38.9238C117.349 52.4258 118.473 63.3188 114.85 78.0928C112.488 87.7258 112.999 89.9238 117.599 89.9238C122.644 89.9238 126.353 78.6928 126.349 63.4238C126.345 44.9228 120.788 31.6108 107.547 18.3868C98.536 9.38777 91.433 5.15977 80.013 1.99477C71.156 -0.460227 56.677 -0.679225 47.656 1.50478ZM55.176 20.9938C39.457 24.0868 25.753 37.6398 21.988 53.8138C20.399 60.6408 21.203 70.7178 23.915 77.9678C29.492 92.8728 49.716 107.697 52.501 98.9218C53.556 95.5958 52.245 93.5428 47.44 90.9978C32.235 82.9438 26.554 62.9218 34.985 47.1028C40.874 36.0538 50.441 30.4628 63.5 30.4388C70.256 30.4258 72.387 30.8588 77.203 33.2238C91.48 40.2348 97.646 54.1978 94.61 72.6388C93.792 77.6078 93.87 77.9068 96.249 78.9918C102.338 81.7658 105.522 74.7238 104.82 60.0368C104.446 52.2178 103.929 50.1658 100.68 43.5918C94.659 31.4088 84.131 23.5168 70.566 21.0168C63.867 19.7828 61.35 19.7788 55.176 20.9938ZM60.458 53.8038C58.235 54.8138 55.566 56.9378 54.526 58.5248C50.734 64.3118 51.54 67.5218 68.819 115.424C77.746 140.174 85.511 161.549 86.073 162.924C86.793 164.686 85.939 164.096 83.178 160.924C74.433 150.876 62.234 145.358 50.428 146.109C43.128 146.574 40.369 148.438 39.409 153.555C38.3 159.467 39.622 161.558 50.232 170.668C67.077 185.133 70.78 188.853 81.846 202.424C96.492 220.387 115.132 239.035 121.733 242.329C133.643 248.272 149.935 249.649 164.445 245.938C182.184 241.401 199.018 228.623 205.946 214.438C211.144 203.793 211.329 195.718 206.726 180.255C201.915 164.088 197.396 146.704 196.027 139.092C194.237 129.142 190.124 115.906 187.812 112.66C185.505 109.42 180.554 106.924 176.433 106.924C170.05 106.924 163.013 113.112 163.004 118.733C162.998 122.293 161.338 120.438 160.644 116.097C159.1 106.446 149.309 101.311 140.46 105.51C136.515 107.382 134.286 110.475 133.149 115.657L132.322 119.424L130.949 114.996C127.133 102.685 114.14 99.3058 106.05 108.52C103.427 111.507 102.994 112.794 102.96 117.709C102.92 123.246 102.543 122.426 90.864 91.4238C84.234 73.8238 77.84 58.3538 76.655 57.0448C74.315 54.4618 69.126 51.9108 66.282 51.9458C65.302 51.9578 62.681 52.7938 60.458 53.8038Z" fill="#070E14"/>
</svg>
